<svg width="24" height="24" viewBox="0 0 24 24" fill="none" xmlns="http://www.w3.org/2000/svg">
<rect x="0.6" y="0.6" width="22.8" height="22.8" rx="2.4" fill="white"/>
<path fill-rule="evenodd" clip-rule="evenodd" d="M18.5803 3.8569L17.7234 3L11.9659 8.75748C11.6329 8.57907 11.2523 8.47789 10.8481 8.47789C9.53908 8.47789 8.47789 9.53908 8.47789 10.8481C8.47789 11.2523 8.57907 11.6329 8.75748 11.9659L3 17.7234L3.8569 18.5803L7.10388 15.3333C6.37029 17.1322 5.99287 19.0567 5.99287 21H7.19345C7.19345 19.1869 7.55056 17.3915 8.24441 15.7165C8.64863 14.7406 9.16252 13.8167 9.77461 12.9619C10.0969 13.1259 10.4617 13.2184 10.8481 13.2184C12.1572 13.2184 13.2184 12.1572 13.2184 10.8481C13.2184 10.4617 13.1259 10.0969 12.9619 9.77461C13.8167 9.16252 14.7406 8.64863 15.7165 8.24441C17.3916 7.55056 19.1869 7.19345 21 7.19345L21 5.99288C19.0567 5.99287 17.1322 6.37029 15.3333 7.10388L18.5803 3.8569ZM10.8481 12.1723C11.5794 12.1723 12.1723 11.5794 12.1723 10.8481C12.1723 10.1168 11.5794 9.52396 10.8481 9.52396C10.1168 9.52396 9.52396 10.1168 9.52396 10.8481C9.52396 11.5794 10.1168 12.1723 10.8481 12.1723Z" fill="#3742FA"/>
<rect x="0.6" y="0.6" width="22.8" height="22.8" rx="2.4" stroke="#3742FA" stroke-width="1.2"/>
</svg>
